0
SECTION
2
HEADER
9
$INSUNITS
70
4
9
$ACADVER
1
AC1014
9
$HANDSEED
5
FFFF
0
ENDSEC
0
SECTION
2
TABLES
0
TABLE
2
VPORT
5
8
100
AcDbSymbolTable
0
ENDTAB
0
TABLE
2
LTYPE
5
5
100
AcDbSymbolTable
0
LTYPE
5
14
100
AcDbSymbolTableRecord
100
AcDbLinetypeTableRecord
2
BYBLOCK
70
0
0
LTYPE
5
15
100
AcDbSymbolTableRecord
100
AcDbLinetypeTableRecord
2
BYLAYER
70
0
0
ENDTAB
0
TABLE
2
LAYER
5
2
100
AcDbSymbolTable
70
2
0
LAYER
5
50
100
AcDbSymbolTableRecord
100
AcDbLayerTableRecord
2
0
70
0
6
CONTINUOUS
0
ENDTAB
0
TABLE
2
STYLE
5
3
100
AcDbSymbolTable
70
1
0
STYLE
5
11
100
AcDbSymbolTableRecord
100
AcDbTextStyleTableRecord
2
STANDARD
70
0
0
ENDTAB
0
TABLE
2
VIEW
5
6
100
AcDbSymbolTable
70
0
0
ENDTAB
0
TABLE
2
UCS
5
7
100
AcDbSymbolTable
70
0
0
ENDTAB
0
TABLE
2
APPID
5
9
100
AcDbSymbolTable
70
2
0
APPID
5
12
100
AcDbSymbolTableRecord
100
AcDbRegAppTableRecord
2
ACAD
70
0
0
ENDTAB
0
TABLE
2
DIMSTYLE
5
A
100
AcDbSymbolTable
70
1
0
ENDTAB
0
TABLE
2
BLOCK_RECORD
5
1
100
AcDbSymbolTable
70
1
0
BLOCK_RECORD
5
1F
100
AcDbSymbolTableRecord
100
AcDbBlockTableRecord
2
*MODEL_SPACE
0
BLOCK_RECORD
5
1B
100
AcDbSymbolTableRecord
100
AcDbBlockTableRecord
2
*PAPER_SPACE
0
ENDTAB
0
ENDSEC
0
SECTION
2
BLOCKS
0
BLOCK
5
20
100
AcDbEntity
100
AcDbBlockBegin
2
*MODEL_SPACE
0
ENDBLK
5
21
100
AcDbEntity
100
AcDbBlockEnd
0
BLOCK
5
1C
100
AcDbEntity
100
AcDbBlockBegin
2
*PAPER_SPACE
0
ENDBLK
5
1D
100
AcDbEntity
100
AcDbBlockEnd
0
ENDSEC
0
SECTION
2
ENTITIES
0
CIRCLE
5
100
100
AcDbEntity
8
0
100
AcDbCircle
10
-15
20
-3.7470027081099033e-15
30
0
40
1.0499999999999998
210
0
220
-0
230
1
0
LWPOLYLINE
5
101
100
AcDbEntity
8
0
100
AcDbPolyline
90
12
70
1
43
0.0
10
-46.246621498224073
20
-2.5000000000000004
10
-15.000000106799313
20
-2.5000000000000004
42
1.000000022351742
10
-15.000000004959396
20
2.4999999999999996
10
-46.246621487515071
20
2.4999999251992455
42
-0.54824226717315683
10
-63.475755045292544
20
29.509803818900942
42
-0.63788443559604235
10
63.47575504529253
20
29.509803818900913
42
-0.54824226717315661
10
46.246621487515057
20
2.4999999251992322
10
15.00000000598471
20
2.4999999999999991
42
1.0000000210734243
10
15.000000099382412
20
-2.5000000000000004
10
46.246621498224073
20
-2.4999999999999867
42
-0.54824226692069922
10
63.475754997562476
20
-29.509803921568604
42
-0.63788443445826326
10
-63.475754997562461
20
-29.509803921568629
42
-0.54824226692069922
0
CIRCLE
5
102
100
AcDbEntity
8
0
100
AcDbCircle
10
15
20
-1.8735013540549517e-15
30
0
40
1.0499999999999998
210
0
220
-0
230
1
0
LWPOLYLINE
5
103
100
AcDbEntity
8
0
100
AcDbPolyline
90
12
70
1
43
0.0
10
-87.981472158455688
20
-0.69999999999999063
10
-86.981472158455688
20
-1.6999999999999906
10
-77.981472158455716
20
-1.6999999999999924
42
0.97843754276607009
10
77.981472158455702
20
-1.7000000000000144
10
86.981472158455688
20
-1.7000000000000086
10
87.981472158455688
20
-0.70000000000000895
10
87.981472158455688
20
0.69999999999999174
10
86.981472158455688
20
1.6999999999999917
10
77.981472158455674
20
1.6999999999999906
42
0.97843754276607009
10
-77.981472158455702
20
1.6999999999999971
10
-86.981472158455688
20
1.7000000000000099
10
-87.981472158455688
20
0.70000000000001006
0
LWPOLYLINE
5
104
100
AcDbEntity
8
0
100
AcDbPolyline
90
10
70
1
43
0.0
10
107.98525399262893
20
1.2
10
107.48525399262891
20
1.6999999999999997
10
97.985253992628927
20
1.6999999999999997
42
0.38401553128556432
10
8.5000000000000249
20
97.630681652849276
10
8.4999999999999147
20
89.597712024359197
42
-0.90962144187166749
10
8.4999999999999716
20
-89.597712024359197
10
8.499999999999984
20
-97.630681652849276
42
0.38401553128556432
10
97.985253992628913
20
-1.7000000000000282
10
107.48525399262891
20
-1.7000000000000004
10
107.98525399262893
20
-1.2000000000000006
0
CIRCLE
5
105
100
AcDbEntity
8
0
100
AcDbCircle
10
12.499999999999947
20
-94.000000000000796
30
0
40
1.100000000000001
210
0
220
-0
230
1
0
CIRCLE
5
106
100
AcDbEntity
8
0
100
AcDbCircle
10
12.499999999999947
20
94.000000000000796
30
0
40
1.100000000000001
210
0
220
-0
230
1
0
LWPOLYLINE
5
107
100
AcDbEntity
8
0
100
AcDbPolyline
90
10
70
1
43
0.0
10
1.2000000000000206
20
-97.983578013172448
10
1.7000000000000206
20
-97.483578013172433
10
1.7000000000000182
20
-87.983578013172448
42
0.3806144291604423
10
87.588526645902661
20
-8.500000000000016
10
79.547155825962776
20
-8.4999999999999414
42
-0.89883791893743248
10
-79.547155825962761
20
-8.4999999999999964
10
-87.588526645902661
20
-8.4999999999999911
42
0.3806144291604423
10
-1.7000000000000381
20
-87.983578013172448
10
-1.6999999999999797
20
-97.483578013172433
10
-1.1999999999999797
20
-97.983578013172448
0
CIRCLE
5
108
100
AcDbEntity
8
0
100
AcDbCircle
10
-84.00000125169754
20
-12.5
30
0
40
1.1500000000000021
210
0
220
-0
230
1
0
CIRCLE
5
109
100
AcDbEntity
8
0
100
AcDbCircle
10
84.00000125169754
20
-12.5
30
0
40
1.1500000000000021
210
0
220
-0
230
1
0
LWPOLYLINE
5
110
100
AcDbEntity
8
0
100
AcDbPolyline
90
10
70
1
43
0.0
10
-1.1999999999999997
20
97.983578013172448
10
-1.6999999999999995
20
97.483578013172433
10
-1.7000000000000011
20
87.983578013172448
42
0.3806144291604423
10
-87.588526645902647
20
8.5000000000000249
10
-79.547155825962776
20
8.5000000000000124
42
-0.89883791893743215
10
79.547155825962776
20
8.5
10
87.588526645902661
20
8.5000000000000124
42
0.3806144291604423
10
1.7000000000000259
20
87.983578013172448
10
1.7000000000000006
20
97.483578013172433
10
1.2000000000000008
20
97.983578013172448
0
CIRCLE
5
111
100
AcDbEntity
8
0
100
AcDbCircle
10
-84.00000125169754
20
12.5
30
0
40
1.1500000000000021
210
0
220
-0
230
1
0
CIRCLE
5
112
100
AcDbEntity
8
0
100
AcDbCircle
10
84.00000125169754
20
12.5
30
0
40
1.1500000000000021
210
0
220
-0
230
1
0
LWPOLYLINE
5
113
100
AcDbEntity
8
0
100
AcDbPolyline
90
10
70
1
43
0.0
10
-107.48525399262891
20
1.6999999999999997
10
-107.98525399262893
20
1.2
10
-107.98525399262893
20
-1.2000000000000006
10
-107.48525399262891
20
-1.7000000000000004
10
-97.985253992628913
20
-1.7000000000000062
42
0.38401553128556432
10
-8.5000000000000107
20
-97.63068165284929
10
-8.5000000000000266
20
-89.597712024359225
42
-0.9096214418716666
10
-8.5000000000000213
20
89.597712024359225
10
-8.5000000000000426
20
97.63068165284929
42
0.38401553128556432
10
-97.985253992628927
20
1.699999999999976
0
CIRCLE
5
114
100
AcDbEntity
8
0
100
AcDbCircle
10
-12.500000000000053
20
-94.000000000000796
30
0
40
1.100000000000001
210
0
220
-0
230
1
0
CIRCLE
5
115
100
AcDbEntity
8
0
100
AcDbCircle
10
-12.500000000000053
20
94.000000000000796
30
0
40
1.100000000000001
210
0
220
-0
230
1
0
ENDSEC
0
SECTION
2
OBJECTS
0
DICTIONARY
5
C
100
AcDbDictionary
3
ACAD_GROUP
350
D
3
ACAD_MLINESTYLE
350
17
0
DICTIONARY
5
D
100
AcDbDictionary
0
DICTIONARY
5
1A
330
C
100
AcDbDictionary
0
DICTIONARY
5
17
100
AcDbDictionary
0
ENDSEC
0
EOF
